<svg width="27" height="27" viewBox="0 0 27 27" fill="none" xmlns="http://www.w3.org/2000/svg">
<g clip-path="url(#clip0_9_156)">
<g clip-path="url(#clip1_9_156)">
<g clip-path="url(#clip2_9_156)">
<path d="M-11.5039 0.5H37.8961V26.5H-11.5039V0.5Z" fill="#B22234"/>
<path d="M-11.5039 3.5H37.8961H-11.5039ZM37.8961 7.5H-11.5039H37.8961ZM-11.5039 11.5H37.8961H-11.5039ZM37.8961 15.5H-11.5039H37.8961ZM-11.5039 19.5H37.8961H-11.5039ZM37.8961 23.5H-11.5039H37.8961Z" fill="black"/>
<path d="M-11.5039 3.5H37.8961M37.8961 7.5H-11.5039M-11.5039 11.5H37.8961M37.8961 15.5H-11.5039M-11.5039 19.5H37.8961M37.8961 23.5H-11.5039" stroke="white" stroke-width="2"/>
<path d="M-11.5039 0.5H8.25609V14.5H-11.5039V0.5Z" fill="#3C3B6E"/>
<path d="M0.0225589 1.09998L0.492786 2.54719L-0.738281 1.65276H0.783406L-0.447668 2.54719L0.0225589 1.09998Z" fill="white"/>
<path d="M0.0225589 3.89996L0.492786 5.34718L-0.738281 4.45275H0.783406L-0.447668 5.34718L0.0225589 3.89996Z" fill="white"/>
<path d="M0.0225589 6.69995L0.492786 8.14716L-0.738281 7.25274H0.783406L-0.447668 8.14716L0.0225589 6.69995Z" fill="white"/>
<path d="M0.0225589 9.5L0.492786 10.9472L-0.738281 10.0528H0.783406L-0.447668 10.9472L0.0225589 9.5Z" fill="white"/>
<path d="M0.0225589 12.3L0.492786 13.7472L-0.738281 12.8528H0.783406L-0.447668 13.7472L0.0225589 12.3Z" fill="white"/>
<path d="M1.66904 2.5L2.13927 3.94721L0.908203 3.05279H2.42989L1.19882 3.94721L1.66904 2.5Z" fill="white"/>
<path d="M1.66904 5.29999L2.13927 6.7472L0.908203 5.85277H2.42989L1.19882 6.7472L1.66904 5.29999Z" fill="white"/>
<path d="M1.66904 8.09998L2.13927 9.54719L0.908203 8.65276H2.42989L1.19882 9.54719L1.66904 8.09998Z" fill="white"/>
<path d="M1.66904 10.9L2.13927 12.3472L0.908203 11.4528H2.42989L1.19882 12.3472L1.66904 10.9Z" fill="white"/>
<path d="M3.31748 1.09998L3.78771 2.54719L2.55664 1.65276H4.07833L2.84725 2.54719L3.31748 1.09998Z" fill="white"/>
<path d="M3.31748 3.89996L3.78771 5.34718L2.55664 4.45275H4.07833L2.84725 5.34718L3.31748 3.89996Z" fill="white"/>
<path d="M3.31748 6.69995L3.78771 8.14716L2.55664 7.25274H4.07833L2.84725 8.14716L3.31748 6.69995Z" fill="white"/>
<path d="M3.31748 9.5L3.78771 10.9472L2.55664 10.0528H4.07833L2.84725 10.9472L3.31748 9.5Z" fill="white"/>
<path d="M3.31748 12.3L3.78771 13.7472L2.55664 12.8528H4.07833L2.84725 13.7472L3.31748 12.3Z" fill="white"/>
<path d="M4.96397 2.5L5.43419 3.94721L4.20312 3.05279H5.72481L4.49374 3.94721L4.96397 2.5Z" fill="white"/>
<path d="M4.96397 5.29999L5.43419 6.7472L4.20312 5.85277H5.72481L4.49374 6.7472L4.96397 5.29999Z" fill="white"/>
<path d="M4.96397 8.09998L5.43419 9.54719L4.20312 8.65276H5.72481L4.49374 9.54719L4.96397 8.09998Z" fill="white"/>
<path d="M4.96397 10.9L5.43419 12.3472L4.20312 11.4528H5.72481L4.49374 12.3472L4.96397 10.9Z" fill="white"/>
<path d="M6.61045 1.09998L7.08068 2.54719L5.84961 1.65276H7.3713L6.14022 2.54719L6.61045 1.09998Z" fill="white"/>
<path d="M6.61045 3.89996L7.08068 5.34718L5.84961 4.45275H7.3713L6.14022 5.34718L6.61045 3.89996Z" fill="white"/>
<path d="M6.61045 6.69995L7.08068 8.14716L5.84961 7.25274H7.3713L6.14022 8.14716L6.61045 6.69995Z" fill="white"/>
<path d="M6.61045 9.5L7.08068 10.9472L5.84961 10.0528H7.3713L6.14022 10.9472L6.61045 9.5Z" fill="white"/>
<path d="M6.61045 12.3L7.08068 13.7472L5.84961 12.8528H7.3713L6.14022 13.7472L6.61045 12.3Z" fill="white"/>
</g>
</g>
</g>
<defs>
<clipPath id="clip0_9_156">
<rect x="0.195312" y="0.5" width="26" height="26" rx="13" fill="white"/>
</clipPath>
<clipPath id="clip1_9_156">
<rect width="26" height="26" fill="white" transform="translate(0.195312 0.5)"/>
</clipPath>
<clipPath id="clip2_9_156">
<rect width="49.4" height="26" fill="white" transform="translate(-11.5039 0.5)"/>
</clipPath>
</defs>
</svg>
